<svg width="378" height="84" viewBox="0 0 378 84" fill="none" xmlns="http://www.w3.org/2000/svg">
<rect width="378" height="84" rx="14" fill="#1E40AF"/>
<path d="M88.455 36.68C88.455 34.79 88.945 33.3667 89.925 32.41C90.905 31.4533 92.0717 30.975 93.425 30.975C94.8017 30.975 96.6683 31.2083 99.025 31.675C101.382 32.1417 103.155 32.3867 104.345 32.41C106.328 32.0367 108.218 31.5817 110.015 31.045C110.202 31.6517 110.295 32.41 110.295 33.32C110.295 35.21 109.747 36.6333 108.65 37.59C107.577 38.5467 106.2 39.025 104.52 39.025C104.1 39.025 103.54 39.0017 102.84 38.955C101.557 45.6983 100.915 49.4667 100.915 50.26C100.915 52.5233 101.265 54.215 101.965 55.335C100.565 56.385 99.1067 56.91 97.59 56.91C96.0733 56.91 94.9883 56.4783 94.335 55.615C93.6817 54.7283 93.355 53.4217 93.355 51.695C93.355 49.945 94.0317 45.3017 95.385 37.765C92.7483 38.115 90.5317 38.5117 88.735 38.955C88.5483 38.3717 88.455 37.6133 88.455 36.68ZM127.645 37.66C128.952 37.66 130.072 38.185 131.005 39.235C131.962 40.285 132.44 41.8133 132.44 43.82C132.44 45.8033 132.09 47.6467 131.39 49.35C130.69 51.03 129.769 52.4067 128.625 53.48C127.482 54.5533 126.187 55.3933 124.74 56C123.294 56.5833 121.812 56.875 120.295 56.875C117.239 56.875 114.824 56.035 113.05 54.355C111.277 52.675 110.39 50.4467 110.39 47.67C110.39 43.9133 111.592 40.8683 113.995 38.535C116.422 36.1783 119.502 35 123.235 35C124.075 35 124.915 35.0933 125.755 35.28C126.012 36.05 126.152 36.925 126.175 37.905C126.665 37.7417 127.155 37.66 127.645 37.66ZM123.34 42.525C123.34 41.8717 123.492 41.1367 123.795 40.32C124.122 39.5033 124.635 38.85 125.335 38.36C122.255 39.0133 120.132 40.2617 118.965 42.105C117.962 43.6917 117.46 45.325 117.46 47.005C117.46 48.685 117.799 50.0383 118.475 51.065C119.175 52.0683 120.062 52.57 121.135 52.57C123.515 52.57 125.195 51.0183 126.175 47.915C124.285 46.7483 123.34 44.9517 123.34 42.525ZM146.428 50.295C146.428 48.965 146.743 46.62 147.373 43.26C148.003 39.9 148.388 37.7767 148.528 36.89L146.673 33.145C149.636 31.465 152.156 30.625 154.233 30.625C155.26 30.625 156.03 30.975 156.543 31.675C158.48 30.9983 160.265 30.66 161.898 30.66C164.931 30.66 167.288 31.6517 168.968 33.635C170.648 35.595 171.488 38.045 171.488 40.985C171.488 44.8583 170.065 48.4167 167.218 51.66C165.841 53.2233 164.021 54.4833 161.758 55.44C159.518 56.3967 157.115 56.875 154.548 56.875C151.981 56.875 149.986 56.315 148.563 55.195C147.14 54.0517 146.428 52.4183 146.428 50.295ZM153.848 51.625C154.338 51.7183 154.886 51.765 155.493 51.765C158.036 51.765 160.02 50.855 161.443 49.035C162.866 47.1917 163.578 44.9283 163.578 42.245C163.578 40.075 163.088 38.3483 162.108 37.065C161.128 35.7817 159.716 35.14 157.873 35.14C157.593 35.14 157.126 35.1867 156.473 35.28C156.31 36.47 155.878 39.13 155.178 43.26C154.501 47.3667 154.058 50.155 153.848 51.625ZM190.331 37.66C191.638 37.66 192.758 38.185 193.691 39.235C194.648 40.285 195.126 41.8133 195.126 43.82C195.126 45.8033 194.776 47.6467 194.076 49.35C193.376 51.03 192.454 52.4067 191.311 53.48C190.168 54.5533 188.873 55.3933 187.426 56C185.979 56.5833 184.498 56.875 182.981 56.875C179.924 56.875 177.509 56.035 175.736 54.355C173.963 52.675 173.076 50.4467 173.076 47.67C173.076 43.9133 174.278 40.8683 176.681 38.535C179.108 36.1783 182.188 35 185.921 35C186.761 35 187.601 35.0933 188.441 35.28C188.698 36.05 188.838 36.925 188.861 37.905C189.351 37.7417 189.841 37.66 190.331 37.66ZM186.026 42.525C186.026 41.8717 186.178 41.1367 186.481 40.32C186.808 39.5033 187.321 38.85 188.021 38.36C184.941 39.0133 182.818 40.2617 181.651 42.105C180.648 43.6917 180.146 45.325 180.146 47.005C180.146 48.685 180.484 50.0383 181.161 51.065C181.861 52.0683 182.748 52.57 183.821 52.57C186.201 52.57 187.881 51.0183 188.861 47.915C186.971 46.7483 186.026 44.9517 186.026 42.525ZM213.384 56.91C211.844 56.91 210.747 56.4783 210.094 55.615C209.44 54.7283 209.114 53.4217 209.114 51.695C209.114 49.945 209.849 45.01 211.319 36.89L209.464 33.145C212.1 31.4417 214.504 30.59 216.674 30.59C218.47 30.59 219.369 31.6867 219.369 33.88C219.369 34.5333 218.914 37.2633 218.004 42.07C217.117 46.8767 216.674 49.9333 216.674 51.24H220.454C222.227 50.9833 224.012 50.5283 225.809 49.875C225.949 50.295 226.019 50.8667 226.019 51.59C226.019 52.9667 225.61 54.1917 224.794 55.265C224 56.3383 222.892 56.875 221.469 56.875C220.512 56.875 218.855 56.6183 216.499 56.105C215.519 56.6417 214.48 56.91 213.384 56.91ZM239.453 29.47C239.453 30.3567 238.986 31.1267 238.053 31.78C237.119 32.41 236.058 32.725 234.868 32.725C233.678 32.725 232.733 32.4917 232.033 32.025C231.356 31.5583 231.018 30.9283 231.018 30.135C231.018 29.0617 231.519 28.2217 232.523 27.615C233.526 27.0083 234.588 26.705 235.708 26.705C236.828 26.705 237.726 26.9383 238.403 27.405C239.103 27.8717 239.453 28.56 239.453 29.47ZM232.628 56.875C231.181 56.875 230.131 56.5133 229.478 55.79C228.824 55.0667 228.498 53.97 228.498 52.5C228.498 51.0067 229.244 47.0283 230.738 40.565L228.778 37.625C231.694 35.875 233.993 35 235.673 35C236.629 35 237.306 35.21 237.703 35.63C238.099 36.0267 238.298 36.68 238.298 37.59C238.298 37.94 237.866 39.9933 237.003 43.75C236.139 47.5067 235.708 50.19 235.708 51.8C235.708 53.41 236.069 54.53 236.793 55.16C235.486 56.3033 234.098 56.875 232.628 56.875ZM252.882 39.655C252.019 39.9117 251.33 40.285 250.817 40.775C250.304 41.2417 249.849 41.9183 249.452 42.805C253.395 43.3883 256.172 44.2283 257.782 45.325C259.392 46.4217 260.197 47.985 260.197 50.015C260.197 51.2983 259.835 52.4183 259.112 53.375C258.389 54.3083 257.479 55.02 256.382 55.51C254.235 56.42 252.124 56.875 250.047 56.875C244.144 56.875 241.192 55.6033 241.192 53.06C241.192 51.7767 241.764 50.4933 242.907 49.21C243.49 50.0267 244.365 50.7267 245.532 51.31C246.722 51.8933 247.877 52.185 248.997 52.185C250.934 52.185 252.1 51.3333 252.497 49.63C248.95 49.21 246.384 48.4167 244.797 47.25C243.21 46.0833 242.417 44.4383 242.417 42.315C242.417 40.635 242.965 39.2233 244.062 38.08C245.182 36.9367 246.559 36.1433 248.192 35.7C249.849 35.2333 251.704 35 253.757 35C255.834 35 257.537 35.3967 258.867 36.19C260.22 36.96 260.897 37.905 260.897 39.025C260.897 40.145 260.5 41.0083 259.707 41.615C258.937 42.2217 258.085 42.525 257.152 42.525C256.242 42.525 255.402 42.28 254.632 41.79C253.885 41.3 253.302 40.5883 252.882 39.655ZM264.627 43.365C264.464 42.7117 264.382 42.105 264.382 41.545C264.382 40.4017 264.721 39.5383 265.397 38.955C266.074 38.3717 266.949 38.08 268.022 38.08C268.022 36.8667 267.707 35.5483 267.077 34.125C268.221 33.285 269.259 32.655 270.192 32.235C271.149 31.7917 272.152 31.57 273.202 31.57C274.252 31.57 274.976 31.7683 275.372 32.165C275.792 32.5383 276.002 33.1217 276.002 33.915C276.002 34.7083 275.839 35.945 275.512 37.625C276.446 37.485 277.391 37.2867 278.347 37.03C278.511 37.52 278.592 38.15 278.592 38.92C278.592 39.69 278.289 40.4133 277.682 41.09C277.099 41.7433 276.236 42.07 275.092 42.07H274.567C273.727 45.8733 273.307 48.8017 273.307 50.855C273.307 52.9083 273.669 54.3433 274.392 55.16C273.086 56.3033 271.697 56.875 270.227 56.875C268.757 56.875 267.696 56.4433 267.042 55.58C266.412 54.6933 266.097 53.3283 266.097 51.485C266.097 50.365 266.506 47.425 267.322 42.665C266.389 42.8283 265.491 43.0617 264.627 43.365Z" fill="white"/>
</svg>
